<svg id="Layer_1" data-name="Layer 1" xmlns="http://www.w3.org/2000/svg" viewBox="0 0 1366 928.34"><defs><style>.cls-1{fill:#117f95;}</style></defs><path class="cls-1" d="M1312.52,15.32H1138.84a47.51,47.51,0,0,0-34.38,14.73l-23.32,24.46a42.76,42.76,0,0,1-31,13.27H315.65a42.78,42.78,0,0,1-31-13.27L261.35,30.05A47.5,47.5,0,0,0,227,15.32H53.3A32.56,32.56,0,0,0,20.74,47.88V884.29A32.56,32.56,0,0,0,53.3,916.85H682.81l.1-424.53L683,916.85h629.52a32.55,32.55,0,0,0,32.55-32.56V47.88A32.55,32.55,0,0,0,1312.52,15.32Z"/></svg>